<svg width="316" height="516" viewBox="0 0 316 516" fill="none" xmlns="http://www.w3.org/2000/svg">
<g opacity="0.5">
<path d="M11.9486 -183.726C13.5886 -181.102 8.55677 -174.162 7.59974 -171.634C4.74828 -164.103 2.69159 -156.68 2.19025 -148.617C1.50006 -137.517 -0.0450963 -125.04 2.08418 -114.039C4.88617 -99.5619 18.9606 -85.8276 28.124 -75.1647C51.8633 -47.5408 84.7945 -30.8907 109.744 -4.5761C128.283 14.9776 138.299 38.8592 129.101 65.164C123.186 82.0817 114.82 98.1637 109.797 115.387C105.053 131.651 109.159 146.325 117.646 160.732C135.595 191.201 163.387 217.731 192 238.109C227.52 263.405 268.861 276.67 311.91 281.385C326.236 282.953 340.458 284.249 354.55 287.431C361.216 288.936 369.056 290.704 374.703 294.961C384.488 302.339 387.253 318.532 390.136 329.487C396.32 352.987 401.899 378.001 411.933 400.181C417.436 412.347 424.928 423.991 432.616 434.866C438.659 443.413 445.382 451.928 452.769 459.368C471.365 478.094 458.158 462.853 477.802 480.687" stroke="#88C701" stroke-linecap="round"/>
<path d="M36.7675 -197.09C30.1438 -174.46 25.9664 -151.3 31.1458 -127.828C36.6616 -102.831 55.5084 -83.0153 72.6186 -65.1412C91.7415 -45.1647 112.634 -27.1914 132.972 -8.50062C149.969 7.12022 175.079 26.6255 178.369 51.4281C181.508 75.0945 170.629 99.488 160.125 120.001C156.349 127.375 149.138 135.619 148.564 144.238C147.857 154.836 148.635 164.741 154.132 174.043C160.148 184.224 168.21 193.845 176.566 202.151C201.445 226.883 230.372 247.667 258.557 268.338C282.403 285.828 307.559 301.602 331.32 319.145C334.74 321.671 339.193 324.731 341.29 328.585C344.374 334.252 345.276 341.625 346.541 347.837C349.323 361.509 352.124 375.477 353.541 389.362C355.581 409.356 363.878 430.061 375.02 446.745C390.424 469.814 413.867 484.647 437.176 498.719C449.287 506.031 465.675 512.474 475.891 522.691" stroke="#88C701" stroke-linecap="round"/>
<path d="M88.3179 -188.499C81.9222 -166.723 74.0752 -144.256 75.9609 -121.198C79.0341 -83.6224 101.542 -48.8413 119.29 -16.6679C131.435 5.34919 143.833 27.2073 155.035 49.731C160.198 60.1127 166.011 71.2475 163.839 83.2486C161.107 98.3394 150.047 111.191 142.519 124.085C134.343 138.09 125.922 154.183 123.957 170.543C121.368 192.095 133.192 214.718 144.959 231.851C165.254 261.403 194.275 285.508 223.555 305.674C255.111 327.407 289.284 342.537 324.002 358.231C334.247 362.863 340.033 365.636 349.671 370.694C351.88 371.854 361.902 375.869 363.035 379.816C363.865 382.706 362.993 385.831 362.823 388.832C362.32 397.724 361.55 406.594 361.55 415.508C361.55 430.813 364.493 444.673 372.688 457.777C387.632 481.672 411.465 499.935 424.873 524.706C433.482 540.61 455.111 541.647 471.119 546.556" stroke="#88C701" stroke-linecap="round"/>
</g>
</svg>
