<svg width="303" height="516" viewBox="0 0 303 516" fill="none" xmlns="http://www.w3.org/2000/svg">
<g opacity="0.5">
<path d="M290.896 729.691C289.26 727.072 294.281 720.146 295.236 717.624C298.082 710.109 300.134 702.701 300.634 694.654C301.323 683.577 302.865 671.126 300.74 660.147C297.944 645.7 283.899 631.994 274.754 621.353C251.063 593.786 218.2 577.17 193.302 550.909C174.801 531.396 164.806 507.563 173.984 481.312C179.887 464.429 188.236 448.38 193.249 431.192C197.983 414.962 193.886 400.318 185.416 385.941C167.503 355.535 139.769 329.059 111.215 308.723C75.7678 283.478 34.5114 270.241 -8.4493 265.536C-22.7452 263.97 -36.9385 262.678 -51.0012 259.503C-57.6536 258 -65.4773 256.236 -71.1129 251.987C-80.8776 244.625 -83.6372 228.465 -86.5141 217.533C-92.6857 194.081 -98.2529 169.118 -108.266 146.983C-113.758 134.843 -121.235 123.223 -128.907 112.37C-134.938 103.84 -141.647 95.3426 -149.019 87.9186C-167.577 69.2312 -154.397 84.4403 -174 66.6427" stroke="#88C701" stroke-linecap="round"/>
<path d="M266.128 743.028C272.738 720.444 276.907 697.332 271.738 673.908C266.234 648.962 247.425 629.187 230.35 611.35C211.267 591.414 190.417 573.478 170.121 554.826C153.159 539.237 128.101 519.772 124.817 495.02C121.684 471.402 132.541 447.059 143.024 426.588C146.792 419.229 153.988 411.002 154.561 402.401C155.266 391.824 154.49 381.941 149.004 372.657C143.001 362.497 134.956 352.896 126.617 344.606C101.789 319.926 72.921 299.185 44.7943 278.556C20.997 261.102 -4.10698 245.36 -27.8192 227.853C-31.2328 225.333 -35.6762 222.279 -37.7692 218.432C-40.8462 212.777 -41.7472 205.419 -43.0088 199.221C-45.7859 185.576 -48.581 171.637 -49.9949 157.78C-52.0309 137.828 -60.3111 117.165 -71.4297 100.515C-86.8024 77.494 -110.197 62.6917 -133.458 48.6481C-145.544 41.3511 -161.898 34.9214 -172.094 24.7259" stroke="#88C701" stroke-linecap="round"/>
<path d="M214.683 734.454C221.066 712.723 228.897 690.302 227.015 667.292C223.948 629.793 201.487 595.084 183.775 562.976C171.655 541.004 159.282 519.191 148.103 496.714C142.951 486.353 137.15 475.241 139.318 463.265C142.044 448.205 153.082 435.38 160.594 422.512C168.753 408.536 177.157 392.477 179.118 376.15C181.701 354.643 169.901 332.066 158.159 314.968C137.906 285.476 108.944 261.421 79.7239 241.296C48.2334 219.608 14.1305 204.51 -20.5166 188.847C-30.7405 184.226 -36.5144 181.458 -46.1325 176.41C-48.3374 175.253 -58.3385 171.246 -59.4696 167.307C-60.2976 164.423 -59.4275 161.304 -59.2579 158.309C-58.7557 149.436 -57.9877 140.584 -57.9877 131.688C-57.9877 116.415 -60.9239 102.583 -69.1021 89.5065C-84.0158 65.66 -107.8 47.4349 -121.181 22.7148C-129.771 6.84357 -151.356 5.80865 -167.331 0.909542" stroke="#88C701" stroke-linecap="round"/>
</g>
</svg>
